<?xml version="1.0" encoding="utf-8"?>
<!-- Generator: Adobe Illustrator 26.0.2, SVG Export Plug-In . SVG Version: 6.00 Build 0)  -->
<svg version="1.1" id="Layer_1" xmlns="http://www.w3.org/2000/svg" xmlns:xlink="http://www.w3.org/1999/xlink" x="0px" y="0px"
	 viewBox="0 0 33.1 48.4" style="enable-background:new 0 0 33.1 48.4;" xml:space="preserve">
<style type="text/css">
	.st0{clip-path:url(#SVGID_00000057128050872241870850000015838833333926165436_);fill:#F4F4F4;}
</style>
<g>
	<g>
		<defs>
			<rect id="SVGID_1_" width="33.1" height="48.4"/>
		</defs>
		<clipPath id="SVGID_00000127723433404249555770000014617163242738644610_">
			<use xlink:href="#SVGID_1_"  style="overflow:visible;"/>
		</clipPath>
		<path style="clip-path:url(#SVGID_00000127723433404249555770000014617163242738644610_);fill:#F4F4F4;" d="M32.6,20.4
			c0.3-1.2,0.4-2.4,0.4-3.7c0.1-4.4-1.6-8.6-4.7-11.7C25.2,1.8,21,0,16.5,0C7.5,0,0,7.4,0,16.5c0,1.3,0.2,2.6,0.5,3.8
			C0.2,21.6,0,22.8,0,24.2c0,1.3,0.2,2.6,0.5,3.8C0.2,29.2,0,30.5,0,31.8C0,41,7.4,48.4,16.5,48.4S33,41,33,31.9
			c0-1.3-0.1-2.6-0.4-3.9c0.3-1.2,0.4-2.4,0.4-3.7C33.1,22.9,32.9,21.6,32.6,20.4z M29.9,22.2c-0.5-0.7-1-1.3-1.6-2
			c-3.1-3.2-7.3-4.9-11.8-4.9C11,15.3,6.2,18,3.2,22.2C3,21.6,2.8,21,2.6,20.4c1.7-6.2,7.3-10.7,14-10.7c3.9,0,7.6,1.5,10.3,4.3
			c1.8,1.8,3,4,3.7,6.4C30.4,21,30.2,21.6,29.9,22.2z M28.9,24.2c-2.6,4.2-7.1,6.9-12.3,6.9s-9.8-2.8-12.3-6.9
			c2.6-4.1,7.1-6.9,12.3-6.9c3.9,0,7.6,1.5,10.3,4.3C27.7,22.4,28.3,23.3,28.9,24.2z M3.2,26.2c3,4.2,7.9,6.9,13.4,6.9
			S27,30.4,30,26.2c0.2,0.6,0.4,1.2,0.6,1.8c-1.6,6.2-7.3,10.8-14,10.8S4.3,34.2,2.6,28C2.7,27.4,2.9,26.8,3.2,26.2z M16.5,2
			c3.9,0,7.6,1.5,10.3,4.3C29.5,9,31,12.5,31,16.2c-0.7-1.3-1.6-2.6-2.7-3.7C25.2,9.4,21,7.7,16.5,7.7c-6.2,0-11.7,3.5-14.5,8.6
			C2.2,8.4,8.6,2,16.5,2z M16.5,46.4C8.7,46.4,2.2,40,2.1,32.1c2.8,5.2,8.2,8.7,14.5,8.7c6.2,0,11.7-3.5,14.5-8.6
			C30.9,40,24.5,46.4,16.5,46.4z"/>
	</g>
</g>
</svg>
