<?xml version="1.0" encoding="utf-8"?>
<!-- Generator: Adobe Illustrator 27.9.0, SVG Export Plug-In . SVG Version: 6.00 Build 0)  -->
<svg version="1.1" id="Layer_1" xmlns="http://www.w3.org/2000/svg" xmlns:xlink="http://www.w3.org/1999/xlink" x="0px" y="0px"
	 viewBox="0 0 35 39" style="enable-background:new 0 0 35 39;" xml:space="preserve">
<style type="text/css">
	.st0{fill:#F0F0F5;}
</style>
<g>
	<g>
		<path class="st0" d="M8.4,30.2c-3.9,0-6.8-1.2-7.8-3.5c-1-2.2,0-5,2.7-8c2.5-2.8,6.4-5.3,10.8-7.2c4.4-1.9,8.9-3,12.7-2.9
			c4,0,6.7,1.3,7.7,3.5c1,2.2,0,5-2.7,8c-2.5,2.8-6.4,5.3-10.8,7.2C16.4,29.2,12,30.2,8.4,30.2z M26.6,10.1c-3.5,0-7.7,1-11.9,2.8
			c-4.2,1.8-7.9,4.3-10.3,6.9c-2.2,2.4-3.1,4.7-2.4,6.3c1.5,3.5,9.9,3.4,18.3-0.3c4.2-1.8,7.9-4.3,10.3-6.9c2.2-2.4,3.1-4.7,2.4-6.3
			s-3-2.5-6.2-2.5C26.7,10.1,26.7,10.1,26.6,10.1z"/>
	</g>
	<g>
		<path class="st0" d="M8.4,22c-3.9,0-6.8-1.2-7.8-3.5c-1.9-4.4,4-11.1,13.5-15.2c4.4-1.9,8.9-2.9,12.7-2.9c4,0,6.7,1.3,7.7,3.5
			c1,2.2,0,5-2.7,8c-2.5,2.8-6.4,5.3-10.8,7.2C16.4,21,12,22,8.4,22z M26.6,1.9c-3.5,0-7.7,1-11.9,2.8C6.3,8.4,0.5,14.4,2,17.9
			c1.5,3.5,9.9,3.4,18.3-0.3l0,0c4.2-1.8,7.9-4.3,10.3-6.9C32.8,8.3,33.7,6,33,4.4c-0.7-1.6-3-2.5-6.2-2.5
			C26.7,1.9,26.7,1.9,26.6,1.9z"/>
	</g>
	<g>
		<path class="st0" d="M8.4,38.6c-3.9,0-6.8-1.2-7.8-3.5c-1.9-4.4,4-11.1,13.5-15.2c4.4-1.9,8.8-2.9,12.6-2.9c0,0,0.1,0,0.1,0
			c4,0,6.7,1.3,7.7,3.5c1.9,4.4-4,11.1-13.5,15.2l0,0C16.4,37.7,12,38.6,8.4,38.6z M26.6,18.6c-3.5,0-7.7,1-11.9,2.8
			C6.3,25.1,0.5,31.1,2,34.6c1.5,3.5,9.9,3.4,18.3-0.3l0,0c8.4-3.6,14.2-9.7,12.7-13.1c-0.7-1.6-3-2.5-6.2-2.5
			C26.7,18.6,26.7,18.6,26.6,18.6z"/>
	</g>
</g>
</svg>
